<svg width="18" height="12" viewBox="0 0 18 12" fill="none" xmlns="http://www.w3.org/2000/svg">
<path d="M6.67969 0.591791C6.97852 0.88476 6.97852 1.37109 6.68555 1.66992L3.12891 5.23827H16.6816C17.0977 5.23827 17.4375 5.57812 17.4375 5.99999C17.4375 6.42187 17.0977 6.76171 16.6816 6.76171H3.12891L6.69141 10.3301C6.98438 10.6289 6.97852 11.1094 6.68555 11.4082C6.38672 11.7012 5.91211 11.7012 5.61328 11.4023L0.785157 6.53906C0.720703 6.46874 0.667969 6.39257 0.626953 6.29882C0.585938 6.20507 0.568359 6.10546 0.568359 6.00585C0.568359 5.80663 0.644532 5.61913 0.785157 5.47265L5.61328 0.60937C5.90039 0.304682 6.38086 0.298823 6.67969 0.591791Z" fill="black"/>
</svg>
